TITLE ""
FILE "DISC2Track20.mp3" MP3
  TRACK 01 AUDIO
    TITLE "DISC2Track20_01"
    INDEX 01 00:00:00
  TRACK 02 AUDIO
    TITLE "DISC2Track20_02"
    INDEX 01 00:01:53
  TRACK 03 AUDIO
    TITLE "DISC2Track20_03"
    INDEX 01 00:01:70
  TRACK 04 AUDIO
    TITLE "DISC2Track20_04"
    INDEX 01 00:06:07
  TRACK 05 AUDIO
    TITLE "DISC2Track20_05"
    INDEX 01 00:11:12
  TRACK 06 AUDIO
    TITLE "DISC2Track20_06"
    INDEX 01 00:15:55
  TRACK 07 AUDIO
    TITLE "DISC2Track20_07"
    INDEX 01 00:15:73
  TRACK 08 AUDIO
    TITLE "DISC2Track20_08"
    INDEX 01 00:19:66
  TRACK 09 AUDIO
    TITLE "DISC2Track20_09"
    INDEX 01 00:23:64
  TRACK 10 AUDIO
    TITLE "DISC2Track20_10"
    INDEX 01 00:27:39
  TRACK 11 AUDIO
    TITLE "DISC2Track20_11"
    INDEX 01 00:27:48
  TRACK 12 AUDIO
    TITLE "DISC2Track20_12"
    INDEX 01 00:30:56
  TRACK 13 AUDIO
    TITLE "DISC2Track20_13"
    INDEX 01 00:34:19
  TRACK 14 AUDIO
    TITLE "DISC2Track20_14"
    INDEX 01 00:37:25
  TRACK 15 AUDIO
    TITLE "DISC2Track20_15"
    INDEX 01 00:37:43
  TRACK 16 AUDIO
    TITLE "DISC2Track20_16"
    INDEX 01 00:41:68
  TRACK 17 AUDIO
    TITLE "DISC2Track20_17"
    INDEX 01 00:46:54
  TRACK 18 AUDIO
    TITLE "DISC2Track20_18"
    INDEX 01 00:51:06
  TRACK 19 AUDIO
    TITLE "DISC2Track20_19"
    INDEX 01 00:51:19
  TRACK 20 AUDIO
    TITLE "DISC2Track20_20"
    INDEX 01 00:54:33
  TRACK 21 AUDIO
    TITLE "DISC2Track20_21"
    INDEX 01 00:56:73
  TRACK 22 AUDIO
    TITLE "DISC2Track20_22"
    INDEX 01 00:59:19
  TRACK 23 AUDIO
    TITLE "DISC2Track20_23"
    INDEX 01 00:59:31
  TRACK 24 AUDIO
    TITLE "DISC2Track20_24"
    INDEX 01 01:04:04
  TRACK 25 AUDIO
    TITLE "DISC2Track20_25"
    INDEX 01 01:07:40
  TRACK 26 AUDIO
    TITLE "DISC2Track20_26"
    INDEX 01 01:10:42
  TRACK 27 AUDIO
    TITLE "DISC2Track20_27"
    INDEX 01 01:10:58
  TRACK 28 AUDIO
    TITLE "DISC2Track20_28"
    INDEX 01 01:15:10
  TRACK 29 AUDIO
    TITLE "DISC2Track20_29"
    INDEX 01 01:19:20
  TRACK 30 AUDIO
    TITLE "DISC2Track20_30"
    INDEX 01 01:22:71
  TRACK 31 AUDIO
    TITLE "DISC2Track20_31"
    INDEX 01 01:23:10
  TRACK 32 AUDIO
    TITLE "DISC2Track20_32"
    INDEX 01 01:26:73
  TRACK 33 AUDIO
    TITLE "DISC2Track20_33"
    INDEX 01 01:31:42
  TRACK 34 AUDIO
    TITLE "DISC2Track20_34"
    INDEX 01 01:35:48
  TRACK 35 AUDIO
    TITLE "DISC2Track20_35"
    INDEX 01 01:35:68
  TRACK 36 AUDIO
    TITLE "DISC2Track20_36"
    INDEX 01 01:39:58
  TRACK 37 AUDIO
    TITLE "DISC2Track20_37"
    INDEX 01 01:42:62
  TRACK 38 AUDIO
    TITLE "DISC2Track20_38"
    INDEX 01 01:45:33
  TRACK 39 AUDIO
    TITLE "DISC2Track20_39"
    INDEX 01 01:45:46
  TRACK 40 AUDIO
    TITLE "DISC2Track20_40"
    INDEX 01 01:48:72
  TRACK 41 AUDIO
    TITLE "DISC2Track20_41"
    INDEX 01 01:52:00
  TRACK 42 AUDIO
    TITLE "DISC2Track20_42"
    INDEX 01 01:54:42
